# xmcd
#
# Track frame offsets: 
#        150
#        21783
#        48403
#        77128
#        99118
#        118098
#        141851
#        162531
#        181251
#        210128
#        224383
#
# Disc length: 3209 seconds
#
# Revision: 0
# Processed by: cddbd v1.5.2PL0 Copyright (c) Steve Scherf et al.
# Submitted via: ExactAudioCopy v0.95a5
#
DISCID=8f0c870b
DTITLE=Dave Hole - Rough Diamond
DYEAR=2007
DGENRE=Bluesrock
TTITLE0=Rough Diamond Child
TTITLE1=White Trash Girl
TTITLE2=Something Inside Of Me
TTITLE3=Can't Stop Loving You
TTITLE4=Vintage Wine
TTITLE5=Yours For A Song
TTITLE6=Since I Met You Baby
TTITLE7=I'll Get To You
TTITLE8=King Bee
TTITLE9=Think It Over
TTITLE10=Rambling On My Mind
EXTD=
EXTT0=
EXTT1=
EXTT2=
EXTT3=
EXTT4=
EXTT5=
EXTT6=
EXTT7=
EXTT8=
EXTT9=
EXTT10=
PLAYORDER=
